<svg width="30" height="30" viewBox="0 0 30 30" fill="none" xmlns="http://www.w3.org/2000/svg">
<path fill-rule="evenodd" clip-rule="evenodd" d="M1.25348 2.8125C1.25348 2.29473 1.67321 1.875 2.19098 1.875H4.56759C5.50377 1.875 6.33617 2.47074 6.63816 3.35688L7.22356 5.07469H22.8155C26.0947 5.07469 28.753 7.733 28.753 11.0122V16.1902C28.753 19.4694 26.0947 22.1277 22.8155 22.1277H13.4606C10.5863 22.1277 8.12472 20.0689 7.61661 17.2398L5.64238 6.24759L4.86338 3.9617C4.82024 3.83511 4.70133 3.75 4.56759 3.75H2.19098C1.67321 3.75 1.25348 3.33027 1.25348 2.8125ZM7.67348 6.94969L9.46208 16.9084C9.80973 18.844 11.494 20.2527 13.4606 20.2527H22.8155C25.0592 20.2527 26.878 18.4339 26.878 16.1902V11.0122C26.878 8.76853 25.0592 6.94969 22.8155 6.94969H7.67348Z" fill="#DB0000"/>
<path fill-rule="evenodd" clip-rule="evenodd" d="M11.875 25.625C11.875 24.5895 12.7145 23.75 13.75 23.75H13.7625C14.798 23.75 15.6375 24.5895 15.6375 25.625C15.6375 26.6605 14.798 27.5 13.7625 27.5H13.75C12.7145 27.5 11.875 26.6605 11.875 25.625Z" fill="white"/>
<path fill-rule="evenodd" clip-rule="evenodd" d="M21.875 25.625C21.875 24.5895 22.7145 23.75 23.75 23.75H23.7625C24.798 23.75 25.6375 24.5895 25.6375 25.625C25.6375 26.6605 24.798 27.5 23.7625 27.5H23.75C22.7145 27.5 21.875 26.6605 21.875 25.625Z" fill="white"/>
</svg>
