<svg width="50" height="50" viewBox="0 0 50 50" fill="none" xmlns="http://www.w3.org/2000/svg">
<path fill-rule="evenodd" clip-rule="evenodd" d="M2.08911 4.6875C2.08911 3.82456 2.78867 3.125 3.65161 3.125H7.61262C9.17293 3.125 10.5603 4.1179 11.0636 5.5948L12.0392 8.45782H38.0258C43.4911 8.45782 47.9217 12.8883 47.9217 18.3537V26.9837C47.9217 32.449 43.4911 36.8795 38.0258 36.8795H22.4343C17.6438 36.8795 13.5412 33.4481 12.6943 28.733L9.40394 10.4127L8.10562 6.60283C8.03371 6.39184 7.83552 6.25 7.61262 6.25H3.65161C2.78867 6.25 2.08911 5.55045 2.08911 4.6875ZM12.7891 11.5828L15.7701 28.1806C16.3495 31.4067 19.1566 33.7545 22.4343 33.7545H38.0258C41.7653 33.7545 44.7967 30.7231 44.7967 26.9837V18.3537C44.7967 14.6142 41.7652 11.5828 38.0258 11.5828H12.7891Z" fill="#DB0000"/>
<path fill-rule="evenodd" clip-rule="evenodd" d="M19.7916 42.7083C19.7916 40.9824 21.1907 39.5833 22.9166 39.5833H22.9375C24.6633 39.5833 26.0625 40.9824 26.0625 42.7083C26.0625 44.4342 24.6633 45.8333 22.9375 45.8333H22.9166C21.1907 45.8333 19.7916 44.4342 19.7916 42.7083Z" fill="white"/>
<path fill-rule="evenodd" clip-rule="evenodd" d="M36.4584 42.7083C36.4584 40.9824 37.8575 39.5833 39.5834 39.5833H39.6042C41.3301 39.5833 42.7292 40.9824 42.7292 42.7083C42.7292 44.4342 41.3301 45.8333 39.6042 45.8333H39.5834C37.8575 45.8333 36.4584 44.4342 36.4584 42.7083Z" fill="white"/>
<path fill-rule="evenodd" clip-rule="evenodd" d="M31.2499 17.8347C31.2499 16.9718 30.5503 16.2722 29.6874 16.2722C28.8244 16.2722 28.1249 16.9718 28.1249 17.8347L28.1249 21.4334L24.5262 21.4334C23.6632 21.4334 22.9637 22.133 22.9637 22.9959C22.9637 23.8589 23.6632 24.5584 24.5262 24.5584L28.1249 24.5584L28.1249 28.1571C28.1249 29.0201 28.8244 29.7196 29.6874 29.7196C30.5503 29.7196 31.2499 29.0201 31.2499 28.1571L31.2499 24.5584L34.8486 24.5584C35.7115 24.5584 36.4111 23.8589 36.4111 22.9959C36.4111 22.133 35.7115 21.4334 34.8486 21.4334L31.2499 21.4334L31.2499 17.8347Z" fill="white"/>
</svg>
