<svg width="18" height="23" viewBox="0 0 18 23" fill="none" xmlns="http://www.w3.org/2000/svg">
<path d="M1 8.4281L2.30924 18.1071C2.53251 19.7577 2.64414 20.583 3.20944 21.077C3.77474 21.571 4.60754 21.571 6.27314 21.571H11.7268C13.3924 21.571 14.2253 21.571 14.7906 21.077C15.3559 20.583 15.4675 19.7577 15.6907 18.1071L17 8.4281" stroke="#DB0000" stroke-width="2" stroke-linecap="round" stroke-linejoin="round"/>
<path d="M5.57129 4.42808V4.42808C5.57129 3.09158 5.57129 2.42332 5.87784 1.93545C6.03769 1.68104 6.25282 1.46592 6.50723 1.30606C6.9951 0.999512 7.66335 0.999512 8.99986 0.999512V0.999512C10.3364 0.999512 11.0046 0.999512 11.4925 1.30606C11.7469 1.46592 11.962 1.68104 12.1219 1.93545C12.4284 2.42332 12.4284 3.09158 12.4284 4.42808V4.42808" stroke="#DB0000" stroke-width="2" stroke-linecap="round" stroke-linejoin="round"/>
<path d="M17 4.4281L1 4.4281" stroke="#DB0000" stroke-width="2" stroke-linecap="round" stroke-linejoin="round"/>
<path d="M6.14282 8.99951L6.71425 17.5709" stroke="#DB0000" stroke-width="2" stroke-linecap="round" stroke-linejoin="round"/>
<path d="M11.8573 8.99951L11.2859 17.5709" stroke="#DB0000" stroke-width="2" stroke-linecap="round" stroke-linejoin="round"/>
</svg>
