<svg width="103" height="128" viewBox="0 0 103 128" fill="none" xmlns="http://www.w3.org/2000/svg">
<path d="M78.1199 58.68C78.1228 59.7443 77.9148 60.7985 77.508 61.782C77.1012 62.7655 76.5037 63.6587 75.7499 64.41C75.405 64.7473 74.9424 64.9373 74.4599 64.94C74.0991 64.9412 73.746 64.8351 73.4456 64.6352C73.1452 64.4353 72.9109 64.1506 72.7727 63.8173C72.6344 63.484 72.5984 63.1171 72.6691 62.7632C72.7398 62.4094 72.9142 62.0845 73.1699 61.83C74.0017 60.9926 74.4684 59.8602 74.4684 58.68C74.4684 57.4997 74.0017 56.3674 73.1699 55.53C72.8278 55.1879 72.6356 54.7238 72.6356 54.24C72.6356 53.7561 72.8278 53.2921 73.1699 52.95C73.5121 52.6079 73.9761 52.4156 74.4599 52.4156C74.9438 52.4156 75.4078 52.6079 75.7499 52.95C76.5037 53.7013 77.1012 54.5945 77.508 55.578C77.9148 56.5614 78.1228 57.6157 78.1199 58.68Z" fill="white"/>
<path d="M42.8598 42.59L36.5498 36.28L36.6398 36.36L42.8598 42.59Z" fill="white"/>
<path d="M79.7 42.7199C79.36 42.3199 79 41.9399 78.63 41.5799L67.26 30.2099C66.2476 29.1973 64.9333 28.5414 63.5155 28.3412C62.0977 28.141 60.6532 28.4073 59.4 29.0999L50.8 20.4899C49.4587 19.1581 47.6452 18.4106 45.755 18.4106C43.8648 18.4106 42.0513 19.1581 40.71 20.4899C39.8327 21.36 39.2013 22.4468 38.88 23.6399C37.4735 22.4551 35.6637 21.8595 33.8285 21.9776C31.9932 22.0957 30.2746 22.9183 29.0316 24.2736C27.7886 25.6289 27.1173 27.4121 27.158 29.2507C27.1987 31.0892 27.9482 32.841 29.25 34.1399L29.66 34.5499C28.4635 34.8891 27.3763 35.5348 26.506 36.4233C25.6358 37.3118 25.0127 38.4121 24.6985 39.6154C24.3843 40.8187 24.3899 42.0832 24.7146 43.2837C25.0393 44.4843 25.672 45.5791 26.55 46.4599L27.79 47.6999C26.6112 48.0222 25.5383 48.65 24.68 49.5199C23.3487 50.8595 22.6016 52.6714 22.6016 54.5599C22.6016 56.4485 23.3487 58.2604 24.68 59.5999L42.68 77.5999C47.4794 82.4242 53.9951 85.1499 60.8 85.1799H60.94C64.2662 85.1911 67.5616 84.5428 70.6357 83.2726C73.7098 82.0025 76.5017 80.1356 78.85 77.7799C83.4405 73.149 86.0858 66.9376 86.2439 60.4189C86.4019 53.9002 84.0607 47.5679 79.7 42.7199ZM76.23 75.1699C74.2093 77.2052 71.8007 78.8142 69.1468 79.9015C66.4929 80.9888 63.6478 81.5324 60.78 81.4999C57.8864 81.493 55.0225 80.9153 52.3525 79.8C49.6824 78.6846 47.2587 77.0534 45.22 74.9999L27.22 56.9999C26.8977 56.6773 26.6432 56.2934 26.4715 55.871C26.2997 55.4485 26.2142 54.9959 26.22 54.5399C26.2146 54.0825 26.3002 53.6285 26.4719 53.2045C26.6436 52.7804 26.8979 52.3948 27.22 52.0699C27.8875 51.4428 28.769 51.0936 29.685 51.0936C30.6009 51.0936 31.4824 51.4428 32.15 52.0699L44.74 64.6399C45.0866 64.9505 45.5391 65.1165 46.0043 65.1037C46.4696 65.091 46.9123 64.9004 47.2414 64.5713C47.5705 64.2422 47.761 63.7995 47.7738 63.3343C47.7865 62.869 47.6206 62.4166 47.31 62.0699L34.77 49.5199L29.13 43.8799C28.4772 43.2257 28.1106 42.3392 28.1106 41.4149C28.1106 40.4907 28.4772 39.6042 29.13 38.9499C29.7953 38.3183 30.6776 37.9661 31.595 37.9661C32.5124 37.9661 33.3947 38.3183 34.06 38.9499L49.51 54.3999C49.8521 54.7407 50.3156 54.9317 50.7985 54.9307C51.2814 54.9298 51.7442 54.7371 52.085 54.3949C52.4258 54.0528 52.6167 53.5893 52.6158 53.1064C52.6148 52.6235 52.4221 52.1607 52.08 51.8199L31.82 31.5599C31.172 30.9031 30.8088 30.0176 30.8088 29.0949C30.8088 28.1723 31.172 27.2868 31.82 26.6299C32.4881 25.9999 33.3717 25.6489 34.29 25.6489C35.2083 25.6489 36.0919 25.9999 36.76 26.6299L40.76 30.6299L45.36 35.2299L54.36 44.2299C54.7021 44.5721 55.1661 44.7643 55.65 44.7643C56.1338 44.7643 56.5979 44.5721 56.94 44.2299C57.2821 43.8878 57.4743 43.4238 57.4743 42.9399C57.4743 42.4561 57.2821 41.9921 56.94 41.6499L47.94 32.6499L43.29 27.9999C42.6372 27.3457 42.2706 26.4592 42.2706 25.5349C42.2706 24.6107 42.6372 23.7242 43.29 23.0699C43.9553 22.4383 44.8376 22.0861 45.755 22.0861C46.6724 22.0861 47.5547 22.4383 48.22 23.0699L56.82 31.6799C56.129 32.9336 55.8636 34.3777 56.0637 35.7951C56.2639 37.2125 56.9188 38.5267 57.93 39.5399L62.65 44.2599C61.2097 46.1013 60.4456 48.3815 60.4857 50.7189C60.5257 53.0563 61.3675 55.309 62.87 57.0999C62.9048 57.1448 62.9451 57.1851 62.99 57.2199C63.3075 57.546 63.7368 57.7396 64.1914 57.7619C64.646 57.7841 65.0921 57.6334 65.44 57.3399C65.6243 57.1866 65.7766 56.9984 65.888 56.7861C65.9994 56.5738 66.0678 56.3416 66.0891 56.1027C66.1105 55.8639 66.0845 55.6232 66.0125 55.3945C65.9406 55.1658 65.8242 54.9535 65.67 54.7699C64.6089 53.505 64.063 51.887 64.1408 50.2379C64.2187 48.5887 64.9145 47.0293 66.09 45.8699C66.1515 45.8014 66.2184 45.7379 66.29 45.6799C66.498 45.5221 66.6699 45.3216 66.794 45.0919C66.9181 44.8622 66.9917 44.6086 67.0097 44.3481C67.0276 44.0876 66.9897 43.8263 66.8983 43.5817C66.807 43.3371 66.6643 43.1149 66.48 42.9299L60.48 36.9299C60.0799 36.3518 59.8955 35.6515 59.9591 34.9512C60.0227 34.251 60.3303 33.5954 60.828 33.0988C61.3258 32.6022 61.9822 32.2963 62.6825 32.2343C63.3829 32.1724 64.0828 32.3584 64.66 32.7599L76 44.1499C76.31 44.4599 76.6 44.7699 76.9 45.1499C80.6365 49.2961 82.6482 54.7129 82.5237 60.2929C82.3991 65.8729 80.1478 71.1946 76.23 75.1699Z" fill="white"/>
<path d="M78.1199 58.68C78.1228 59.7443 77.9148 60.7985 77.508 61.782C77.1012 62.7655 76.5037 63.6587 75.7499 64.41C75.405 64.7473 74.9424 64.9373 74.4599 64.94C74.0991 64.9412 73.746 64.8351 73.4456 64.6352C73.1452 64.4353 72.9109 64.1506 72.7727 63.8173C72.6344 63.484 72.5984 63.1171 72.6691 62.7632C72.7398 62.4094 72.9142 62.0845 73.1699 61.83C74.0017 60.9926 74.4684 59.8602 74.4684 58.68C74.4684 57.4997 74.0017 56.3674 73.1699 55.53C72.8278 55.1879 72.6356 54.7238 72.6356 54.24C72.6356 53.7561 72.8278 53.2921 73.1699 52.95C73.5121 52.6079 73.9761 52.4156 74.4599 52.4156C74.9438 52.4156 75.4078 52.6079 75.7499 52.95C76.5037 53.7013 77.1012 54.5945 77.508 55.578C77.9148 56.5614 78.1228 57.6157 78.1199 58.68Z" fill="white"/>
<path d="M70.6902 29.14C70.4512 29.14 70.2145 29.0929 69.9937 29.0014C69.7729 28.91 69.5723 28.7759 69.4033 28.6069C69.2343 28.4379 69.1002 28.2373 69.0088 28.0165C68.9173 27.7956 68.8702 27.559 68.8702 27.32C68.8676 26.1406 68.3979 25.0102 67.5639 24.1763C66.73 23.3423 65.5996 22.8726 64.4202 22.87C63.9362 22.87 63.472 22.6777 63.1297 22.3354C62.7875 21.9932 62.5952 21.529 62.5952 21.045C62.5952 20.561 62.7875 20.0968 63.1297 19.7545C63.472 19.4122 63.9362 19.22 64.4202 19.22C66.5677 19.2226 68.6264 20.0769 70.1449 21.5953C71.6633 23.1138 72.5176 25.1725 72.5202 27.32C72.5202 27.5598 72.4728 27.7973 72.3807 28.0188C72.2886 28.2402 72.1537 28.4413 71.9836 28.6105C71.8136 28.7796 71.6117 28.9134 71.3898 29.0043C71.1678 29.0952 70.9301 29.1413 70.6902 29.14Z" fill="white"/>
<path d="M76.9298 28.76C76.4472 28.76 75.9842 28.5682 75.6429 28.2269C75.3016 27.8856 75.1098 27.4227 75.1098 26.94C75.1072 24.2047 74.0187 21.5823 72.0837 19.6491C70.1486 17.7159 67.5251 16.63 64.7898 16.63C64.3058 16.63 63.8416 16.4377 63.4994 16.0955C63.1571 15.7532 62.9648 15.289 62.9648 14.805C62.9648 14.321 63.1571 13.8568 63.4994 13.5145C63.8416 13.1723 64.3058 12.98 64.7898 12.98C68.5029 12.98 72.0638 14.455 74.6893 17.0805C77.3148 19.706 78.7898 23.2669 78.7898 26.98C78.7846 27.219 78.7324 27.4547 78.6361 27.6735C78.5398 27.8923 78.4013 28.09 78.2286 28.2553C78.0559 28.4206 77.8523 28.5503 77.6294 28.6369C77.4066 28.7235 77.1689 28.7653 76.9298 28.76Z" fill="white"/>
<path d="M26.2499 73.58C24.1025 73.5774 22.0437 72.7231 20.5253 71.2047C19.0068 69.6862 18.1525 67.6275 18.1499 65.48C18.1499 64.996 18.3422 64.5318 18.6844 64.1896C19.0267 63.8473 19.4909 63.655 19.9749 63.655C20.4589 63.655 20.9231 63.8473 21.2654 64.1896C21.6076 64.5318 21.7999 64.996 21.7999 65.48C21.8025 66.6594 22.2722 67.7898 23.1062 68.6237C23.9402 69.4577 25.0705 69.9274 26.2499 69.93C26.7339 69.93 27.1981 70.1223 27.5404 70.4646C27.8826 70.8068 28.0749 71.271 28.0749 71.755C28.0749 72.239 27.8826 72.7032 27.5404 73.0455C27.1981 73.3878 26.7339 73.58 26.2499 73.58Z" fill="white"/>
<path d="M25.8701 79.82C22.1571 79.82 18.5961 78.345 15.9706 75.7195C13.3451 73.094 11.8701 69.533 11.8701 65.82C11.8701 65.336 12.0624 64.8718 12.4046 64.5295C12.7469 64.1873 13.2111 63.995 13.6951 63.995C14.1791 63.995 14.6433 64.1873 14.9856 64.5295C15.3278 64.8718 15.5201 65.336 15.5201 65.82C15.5162 67.1803 15.7812 68.5279 16.2999 69.7854C16.8186 71.043 17.5809 72.1855 18.5427 73.1474C19.5046 74.1093 20.6472 74.8715 21.9047 75.3902C23.1622 75.909 24.5098 76.174 25.8701 76.17C26.3541 76.17 26.8183 76.3623 27.1606 76.7045C27.5028 77.0468 27.6951 77.511 27.6951 77.995C27.6951 78.479 27.5028 78.9432 27.1606 79.2855C26.8183 79.6277 26.3541 79.82 25.8701 79.82Z" fill="white"/>
</svg>
