<svg width="30" height="30" viewBox="0 0 30 30" fill="none" xmlns="http://www.w3.org/2000/svg">
<path d="M15 17.5C14.4042 17.5 13.8223 17.5595 13.2599 17.673M15 17.5C15.6099 17.5 16.1873 17.5588 16.7401 17.673M15 17.5C15.5958 17.5 16.1777 17.5595 16.7401 17.673M15 17.5C14.3901 17.5 13.8127 17.5588 13.2599 17.673M13.2599 17.673C9.26107 18.4799 6.25 22.0133 6.25 26.25M13.2599 17.673C12.368 17.8574 11.5407 18.1863 10.746 18.6461M19.254 18.6461C18.4593 18.1863 17.632 17.8574 16.7401 17.673M16.7401 17.673C20.7389 18.4799 23.75 22.0133 23.75 26.25M15 13.75C12.2386 13.75 10 11.5114 10 8.75C10 5.98858 12.2386 3.75 15 3.75C17.7614 3.75 20 5.98858 20 8.75C20 11.5114 17.7614 13.75 15 13.75Z" stroke="#DB0000" stroke-width="1.5" stroke-linecap="round" stroke-linejoin="round"/>
</svg>
